{"title":"Vaana (2008) Telugu Movie - teluguppls","uid":6471348,"size":728545258,"categoryP":"video","categoryS":"movies","magnet":"?xt=urn:btih:89e7415384a9b1af77e8cdb0693578c8952b44a5&amp;dn=Vaana+%282008%29+Telugu+Movie+-+teluguppls&amp;tr=udp%3A%2F%2Ftracker.openbittorrent.com%3A80&amp;tr=udp%3A%2F%2Fopen.demonii.com%3A1337&amp;tr=udp%3A%2F%2Ftracker.coppersurfer.tk%3A6969&amp;tr=udp%3A%2F%2Fexodus.desync.com%3A6969","seeders":4,"leechers":2,"uploader":"n1212","files":2,"time":1308152597,"description":"Vaana (2008) Telugu Movie - teluguppls\n\n\n\nGeneral\n\nFormat                           : AVI\nFile size                        : 695 MiB\nDuration                         : 2h 18mn\nOverall bit rate                 : 699 Kbps\n\n\nVideo\n\nFormat                           : MPEG-4 Visual\nFormat settings, Matrix          : Default (H.263)\nCodec ID                         : XVID\nCodec ID/Hint                    : XviD\nDuration                         : 2h 18mn\nBit rate                         : 627 Kbps\nWidth                            : 608 pixels\nHeight                           : 256 pixels\nDisplay aspect ratio             : 2.35:1\nFrame rate                       : 23.976 fps\nColor space                      : YUV\nChroma subsampling               : 4:2:0\nBit depth                        : 8 bits\nScan type                        : Progressive\nCompression mode                 : Lossy\nBits/(Pixel*Frame)               : 0.168\nStream size                      : 623 MiB (90%)\n\n\nAudio\n\nFormat                           : MPEG Audio\nCodec ID/Hint                    : MP3\nDuration                         : 2h 18mn\nBit rate mode                    : Constant\nBit rate                         : 64.0 Kbps\nChannel(s)                       : 1 channel\nSampling rate                    : 48.0 KHz\nCompression mode                 : Lossy\nStream size                      : 63.6 MiB (9%)\nAlignment                        : Aligned on interleaves\nInterleave, duration             : 24 ms (0.58 video frame)\nInterleave, preload duration     : 192 ms\n\n\nPLEASEEEE SEEEEEEEDDDDDDDDDDDDDDD...................\n\nPOST A COMMENT................","torrent":{"xt":"urn:btih:89e7415384a9b1af77e8cdb0693578c8952b44a5","amp;dn":"Vaana+%282008%29+Telugu+Movie+-+teluguppls","amp;tr":["udp%3A%2F%2Ftracker.openbittorrent.com%3A80","udp%3A%2F%2Fopen.demonii.com%3A1337","udp%3A%2F%2Ftracker.coppersurfer.tk%3A6969","udp%3A%2F%2Fexodus.desync.com%3A6969"],"infoHash":"89e7415384a9b1af77e8cdb0693578c8952b44a5","infoHashBuffer":{"type":"Buffer","data":[137,231,65,83,132,169,177,175,119,232,205,176,105,53,120,200,149,43,68,165]},"announce":[],"urlList":[]}}